<svg width="1440" height="1024" viewBox="0 0 1440 1024" fill="none" xmlns="http://www.w3.org/2000/svg">
<g clip-path="url(#clip0_233_198)">
<path d="M-24.7341 326.448C183.962 378.958 109.375 932.773 300.737 810.153C492.098 687.533 923.605 1069.96 923.605 1069.96" stroke="#334155" stroke-opacity="0.5" stroke-width="5"/>
<path d="M744.266 37.3941C952.962 89.9035 1380.97 449.252 1069.74 521.099C758.5 592.946 1692.61 780.901 1692.61 780.901" stroke="#334155" stroke-opacity="0.5" stroke-width="5"/>
<path d="M737 367.821C730.824 360.688 723.873 354.265 716.275 348.671C715.602 348.2 714.801 347.947 713.98 347.947C713.159 347.947 712.358 348.2 711.685 348.671C704.101 354.267 697.164 360.69 691 367.821C677.255 383.606 670 400.246 670 415.946C670 427.615 674.636 438.807 682.887 447.058C691.139 455.31 702.33 459.946 714 459.946C725.67 459.946 736.861 455.31 745.113 447.058C753.364 438.807 758 427.615 758 415.946C758 400.246 750.745 383.606 737 367.821ZM714 451.946C704.455 451.935 695.305 448.139 688.556 441.39C681.807 434.641 678.011 425.49 678 415.946C678 387.331 705.735 363.446 714 356.946C722.265 363.446 750 387.321 750 415.946C749.989 425.49 746.193 434.641 739.444 441.39C732.695 448.139 723.545 451.935 714 451.946ZM741.945 420.616C740.908 426.409 738.12 431.746 733.958 435.907C729.796 440.069 724.459 442.855 718.665 443.891C718.445 443.926 718.223 443.944 718 443.946C716.997 443.946 716.03 443.568 715.292 442.889C714.554 442.209 714.098 441.277 714.015 440.277C713.932 439.277 714.227 438.282 714.843 437.49C715.459 436.698 716.35 436.167 717.34 436.001C725.625 434.606 732.655 427.576 734.06 419.276C734.238 418.229 734.824 417.297 735.689 416.682C736.555 416.068 737.629 415.823 738.675 416.001C739.721 416.178 740.654 416.765 741.268 417.63C741.882 418.495 742.128 419.569 741.95 420.616H741.945Z" fill="#334155" fill-opacity="0.5"/>
<path d="M1098 794.875C1091.82 787.742 1084.87 781.319 1077.28 775.725C1076.6 775.254 1075.8 775.001 1074.98 775.001C1074.16 775.001 1073.36 775.254 1072.69 775.725C1065.1 781.322 1058.16 787.744 1052 794.875C1038.26 810.66 1031 827.3 1031 843C1031 854.67 1035.64 865.861 1043.89 874.113C1052.14 882.364 1063.33 887 1075 887C1086.67 887 1097.86 882.364 1106.11 874.113C1114.36 865.861 1119 854.67 1119 843C1119 827.3 1111.75 810.66 1098 794.875ZM1075 879C1065.46 878.989 1056.3 875.193 1049.56 868.444C1042.81 861.695 1039.01 852.545 1039 843C1039 814.385 1066.74 790.5 1075 784C1083.26 790.5 1111 814.375 1111 843C1110.99 852.545 1107.19 861.695 1100.44 868.444C1093.7 875.193 1084.54 878.989 1075 879ZM1102.94 847.67C1101.91 853.464 1099.12 858.8 1094.96 862.961C1090.8 867.123 1085.46 869.909 1079.67 870.945C1079.45 870.98 1079.22 870.999 1079 871C1078 871 1077.03 870.622 1076.29 869.943C1075.55 869.263 1075.1 868.331 1075.01 867.331C1074.93 866.331 1075.23 865.337 1075.84 864.545C1076.46 863.752 1077.35 863.221 1078.34 863.055C1086.62 861.66 1093.65 854.63 1095.06 846.33C1095.24 845.284 1095.82 844.351 1096.69 843.737C1097.55 843.122 1098.63 842.877 1099.68 843.055C1100.72 843.233 1101.65 843.819 1102.27 844.684C1102.88 845.55 1103.13 846.624 1102.95 847.67H1102.94Z" fill="#334155" fill-opacity="0.5"/>
<path d="M265 873.875C258.824 866.742 251.873 860.319 244.275 854.725C243.602 854.254 242.801 854.001 241.98 854.001C241.159 854.001 240.358 854.254 239.685 854.725C232.101 860.322 225.164 866.744 219 873.875C205.255 889.66 198 906.3 198 922C198 933.67 202.636 944.861 210.887 953.113C219.139 961.364 230.33 966 242 966C253.67 966 264.861 961.364 273.113 953.113C281.364 944.861 286 933.67 286 922C286 906.3 278.745 889.66 265 873.875ZM242 958C232.455 957.989 223.305 954.193 216.556 947.444C209.807 940.695 206.011 931.545 206 922C206 893.385 233.735 869.5 242 863C250.265 869.5 278 893.375 278 922C277.989 931.545 274.193 940.695 267.444 947.444C260.695 954.193 251.545 957.989 242 958ZM269.945 926.67C268.908 932.464 266.12 937.8 261.958 941.961C257.796 946.123 252.459 948.909 246.665 949.945C246.445 949.98 246.223 949.999 246 950C244.997 950 244.03 949.622 243.292 948.943C242.554 948.263 242.098 947.331 242.015 946.331C241.932 945.331 242.227 944.337 242.843 943.545C243.459 942.752 244.35 942.221 245.34 942.055C253.625 940.66 260.655 933.63 262.06 925.33C262.238 924.284 262.824 923.351 263.689 922.737C264.555 922.122 265.629 921.877 266.675 922.055C267.721 922.233 268.654 922.819 269.268 923.684C269.882 924.55 270.128 925.624 269.95 926.67H269.945Z" fill="#334155" fill-opacity="0.5"/>
</g>
<defs>
<clipPath id="clip0_233_198">
<rect width="1440" height="1024" fill="white"/>
</clipPath>
</defs>
</svg>
