<svg width="33" height="33" viewBox="0 0 33 33" fill="none" xmlns="http://www.w3.org/2000/svg">
<path d="M28.3879 22.3006C28.6415 22.6068 28.7632 23.0012 28.7262 23.3971C28.6891 23.7929 28.4964 24.1579 28.1904 24.4118C25.9192 26.2968 23.8654 26.9581 22.0017 26.9581C19.5317 26.9581 17.3942 25.7968 15.5167 24.7781C12.3842 23.0756 9.90916 21.7318 6.19041 24.8156C5.88409 25.0695 5.48943 25.1914 5.09326 25.1543C4.69709 25.1173 4.33185 24.9244 4.07791 24.6181C3.82397 24.3117 3.70211 23.9171 3.73915 23.5209C3.77619 23.1247 3.96909 22.7595 4.27541 22.5056C9.55666 18.1306 13.6504 20.3518 16.9492 22.1406C20.0817 23.8418 22.5567 25.1868 26.2754 22.1031C26.4271 21.9773 26.602 21.8826 26.7903 21.8245C26.9785 21.7663 27.1764 21.7458 27.3726 21.7642C27.5687 21.7825 27.7594 21.8393 27.9336 21.9314C28.1078 22.0234 28.2622 22.1488 28.3879 22.3006ZM26.2754 15.1018C22.5567 18.1856 20.0817 16.8406 16.9492 15.1393C13.6554 13.3518 9.55666 11.1256 4.27541 15.5043C3.96909 15.7583 3.77619 16.1235 3.73915 16.5197C3.72081 16.7158 3.74128 16.9137 3.79941 17.1019C3.85753 17.2902 3.95217 17.4651 4.07791 17.6168C4.20365 17.7685 4.35803 17.8939 4.53225 17.9859C4.70646 18.0779 4.89709 18.1347 5.09326 18.1531C5.48943 18.1901 5.88409 18.0683 6.19041 17.8143C9.90916 14.7306 12.3842 16.0743 15.5167 17.7768C17.3917 18.7956 19.5317 19.9568 22.0017 19.9568C23.8654 19.9568 25.9192 19.2956 28.1904 17.4118C28.4967 17.1579 28.6896 16.7926 28.7267 16.3965C28.7637 16.0003 28.6419 15.6056 28.3879 15.2993C28.134 14.993 27.7687 14.8001 27.3726 14.763C26.9764 14.726 26.5817 14.8479 26.2754 15.1018ZM6.19041 10.8131C9.90916 7.72931 12.3842 9.07306 15.5167 10.7756C17.3917 11.7943 19.5317 12.9556 22.0017 12.9556C23.8654 12.9556 25.9192 12.2943 28.1904 10.4106C28.4967 10.1566 28.6896 9.79138 28.7267 9.39521C28.7637 8.99904 28.6419 8.60438 28.3879 8.29806C28.134 7.99173 27.7687 7.79883 27.3726 7.76179C26.9764 7.72475 26.5817 7.84661 26.2754 8.10056C22.5567 11.1843 20.0817 9.84056 16.9492 8.13806C13.6554 6.35056 9.55666 4.12431 4.27541 8.50431C4.12012 8.62885 3.99117 8.78306 3.89608 8.95794C3.80098 9.13282 3.74165 9.32489 3.72154 9.52293C3.70143 9.72098 3.72094 9.92105 3.77894 10.1115C3.83693 10.3019 3.93225 10.4789 4.05934 10.6321C4.18642 10.7853 4.34274 10.9117 4.51916 11.0039C4.69559 11.0961 4.88861 11.1523 5.08696 11.1691C5.28531 11.1859 5.48503 11.1631 5.67448 11.102C5.86392 11.0409 6.03931 10.9427 6.19041 10.8131Z" fill="#3B82F6"/>
</svg>
