<svg width="60" height="16" viewBox="0 0 60 16" fill="none" xmlns="http://www.w3.org/2000/svg">
<g clip-path="url(#clip0_234_145)">
<path d="M28.3658 3.459C27.2077 5.379 25.0438 8.94471 23.5505 11.398C22.0572 13.8666 20.8381 15.9085 20.8381 15.9542C20.8381 15.9847 21.0819 15.9999 21.3715 15.9695C21.9048 15.9238 21.9353 15.8628 26.3696 8.65519C28.8077 4.64757 30.88 1.37138 30.9562 1.35614C31.0477 1.3409 32.1448 3.01709 33.3943 5.08947L35.6953 8.82281L36.2743 8.83804C36.5943 8.83804 36.8381 8.77709 36.8077 8.7009C36.7924 8.62471 35.6038 6.64376 34.1715 4.28185L31.581 0.0151863L31.0172 -5.14984e-05H30.4686L28.3658 3.459Z" fill="white"/>
<path d="M44 8.01514V16.0151L44.4571 15.9694L44.9295 15.9237L44.96 8.53323L44.9905 1.14276H49.8667C55.3981 1.14276 55.6724 1.18847 56.9067 2.33133C58.461 3.76371 58.339 6.36942 56.6324 7.81704C55.5962 8.71609 54.9257 8.88371 51.9695 8.9599L49.3333 9.02085V9.46276V9.90466H51.8324C53.8895 9.90466 54.499 9.85895 55.3067 9.5999C57.1962 9.02085 58.2933 7.9999 58.8114 6.33895C59.5124 4.14466 58.5829 1.82847 56.5867 0.807518C55.2152 0.106565 54.2248 -0.000101089 48.9219 -0.000101089H44V8.01514Z" fill="white"/>
<path d="M-0.0380859 8.07619V16H0.495247H1.02858V8.53333V1.06667H7.12382H13.2191V0.609523V0.15238H6.59049H-0.0380859V8.07619Z" fill="white"/>
<path d="M16.8762 8.07619V16H17.3334H17.7905L17.821 8.07619L17.8667 0.15238H17.3791H16.8762V8.07619Z" fill="white"/>
<path d="M4.38098 8.2284V8.68555H7.20003H10.0191V8.2284V7.77126H7.20003H4.38098V8.2284Z" fill="white"/>
<path d="M37.7524 11.9924C37.7524 12.0533 38.2858 12.9829 38.941 14.0495L40.1143 16H40.7086C41.2724 16 41.2877 15.9848 41.0743 15.6495C40.9524 15.4667 40.3886 14.5371 39.8248 13.5924C38.8191 11.9619 38.7582 11.8857 38.2705 11.8857C37.981 11.8857 37.7524 11.9314 37.7524 11.9924Z" fill="white"/>
</g>
<defs>
<clipPath id="clip0_234_145">
<rect width="59.0857" height="16" fill="white"/>
</clipPath>
</defs>
</svg>
