<svg width="1440" height="1058" viewBox="0 0 1440 1058" fill="none" xmlns="http://www.w3.org/2000/svg">
<g clip-path="url(#clip0_233_233)">
<path d="M-59.2029 608.164C171.435 594.232 307.734 1149.53 453.981 972.628C600.229 795.725 1181.72 1030.12 1181.72 1030.12" stroke="#334155" stroke-opacity="0.5" stroke-width="5"/>
<path d="M616.664 -306.042C838.931 -167.13 1261.28 393.752 909.817 351.26C558.355 308.767 1559.47 878.905 1559.47 878.905" stroke="#334155" stroke-opacity="0.5" stroke-width="5"/>
<path d="M493 106.875C486.824 99.7422 479.873 93.3192 472.275 87.725C471.602 87.2538 470.801 87.0011 469.98 87.0011C469.159 87.0011 468.358 87.2538 467.685 87.725C460.101 93.3216 453.164 99.7444 447 106.875C433.255 122.66 426 139.3 426 155C426 166.67 430.636 177.861 438.887 186.113C447.139 194.364 458.33 199 470 199C481.67 199 492.861 194.364 501.113 186.113C509.364 177.861 514 166.67 514 155C514 139.3 506.745 122.66 493 106.875ZM470 191C460.455 190.989 451.305 187.193 444.556 180.444C437.807 173.695 434.011 164.545 434 155C434 126.385 461.735 102.5 470 96C478.265 102.5 506 126.375 506 155C505.989 164.545 502.193 173.695 495.444 180.444C488.695 187.193 479.545 190.989 470 191ZM497.945 159.67C496.908 165.464 494.12 170.8 489.958 174.961C485.796 179.123 480.459 181.909 474.665 182.945C474.445 182.98 474.223 182.999 474 183C472.997 183 472.03 182.622 471.292 181.943C470.554 181.263 470.098 180.331 470.015 179.331C469.932 178.331 470.227 177.337 470.843 176.545C471.459 175.752 472.35 175.221 473.34 175.055C481.625 173.66 488.655 166.63 490.06 158.33C490.238 157.284 490.824 156.351 491.689 155.737C492.555 155.122 493.629 154.877 494.675 155.055C495.721 155.233 496.654 155.819 497.268 156.684C497.882 157.55 498.128 158.624 497.95 159.67H497.945Z" fill="#334155" fill-opacity="0.5"/>
<path d="M1098 794.875C1091.82 787.742 1084.87 781.319 1077.28 775.725C1076.6 775.254 1075.8 775.001 1074.98 775.001C1074.16 775.001 1073.36 775.254 1072.69 775.725C1065.1 781.322 1058.16 787.745 1052 794.875C1038.26 810.66 1031 827.3 1031 843C1031 854.67 1035.64 865.861 1043.89 874.113C1052.14 882.364 1063.33 887 1075 887C1086.67 887 1097.86 882.364 1106.11 874.113C1114.36 865.861 1119 854.67 1119 843C1119 827.3 1111.75 810.66 1098 794.875ZM1075 879C1065.46 878.99 1056.3 875.193 1049.56 868.444C1042.81 861.695 1039.01 852.545 1039 843C1039 814.385 1066.74 790.5 1075 784C1083.26 790.5 1111 814.375 1111 843C1110.99 852.545 1107.19 861.695 1100.44 868.444C1093.7 875.193 1084.54 878.99 1075 879ZM1102.94 847.67C1101.91 853.464 1099.12 858.8 1094.96 862.962C1090.8 867.123 1085.46 869.909 1079.67 870.945C1079.45 870.98 1079.22 870.999 1079 871C1078 871 1077.03 870.623 1076.29 869.943C1075.55 869.263 1075.1 868.331 1075.01 867.331C1074.93 866.331 1075.23 865.337 1075.84 864.545C1076.46 863.753 1077.35 863.221 1078.34 863.055C1086.62 861.66 1093.65 854.63 1095.06 846.33C1095.24 845.284 1095.82 844.351 1096.69 843.737C1097.55 843.123 1098.63 842.877 1099.68 843.055C1100.72 843.233 1101.65 843.819 1102.27 844.684C1102.88 845.55 1103.13 846.624 1102.95 847.67H1102.94Z" fill="#334155" fill-opacity="0.5"/>
<path d="M407 673.875C400.824 666.742 393.873 660.319 386.275 654.725C385.602 654.254 384.801 654.001 383.98 654.001C383.159 654.001 382.358 654.254 381.685 654.725C374.101 660.322 367.164 666.745 361 673.875C347.255 689.66 340 706.3 340 722C340 733.67 344.636 744.861 352.887 753.113C361.139 761.364 372.33 766 384 766C395.67 766 406.861 761.364 415.113 753.113C423.364 744.861 428 733.67 428 722C428 706.3 420.745 689.66 407 673.875ZM384 758C374.455 757.99 365.305 754.193 358.556 747.444C351.807 740.695 348.011 731.545 348 722C348 693.385 375.735 669.5 384 663C392.265 669.5 420 693.375 420 722C419.989 731.545 416.193 740.695 409.444 747.444C402.695 754.193 393.545 757.99 384 758ZM411.945 726.67C410.908 732.464 408.12 737.8 403.958 741.962C399.796 746.123 394.459 748.909 388.665 749.945C388.445 749.98 388.223 749.999 388 750C386.997 750 386.03 749.623 385.292 748.943C384.554 748.263 384.098 747.331 384.015 746.331C383.932 745.331 384.227 744.337 384.843 743.545C385.459 742.753 386.35 742.221 387.34 742.055C395.625 740.66 402.655 733.63 404.06 725.33C404.238 724.284 404.824 723.351 405.689 722.737C406.555 722.123 407.629 721.877 408.675 722.055C409.721 722.233 410.654 722.819 411.268 723.684C411.882 724.55 412.128 725.624 411.95 726.67H411.945Z" fill="#334155" fill-opacity="0.5"/>
</g>
<defs>
<clipPath id="clip0_233_233">
<rect width="1440" height="1058" fill="white"/>
</clipPath>
</defs>
</svg>
